<?xml version="1.0" standalone="no"?><svg xmlns="http://www.w3.org/2000/svg" viewBox="0 0 1440 320"><path fill="#ffffff" fill-opacity="1" d="M0,160L34.3,133.3C68.6,107,137,53,206,64C274.3,75,343,149,411,192C480,235,549,245,617,245.3C685.7,245,754,235,823,208C891.4,181,960,139,1029,133.3C1097.1,128,1166,160,1234,176C1302.9,192,1371,192,1406,192L1440,192L1440,320L1405.7,320C1371.4,320,1303,320,1234,320C1165.7,320,1097,320,1029,320C960,320,891,320,823,320C754.3,320,686,320,617,320C548.6,320,480,320,411,320C342.9,320,274,320,206,320C137.1,320,69,320,34,320L0,320Z"></path></svg>